<svg xmlns="http://www.w3.org/2000/svg" viewBox="0 0 100 100" fill="none">
  <defs>
    <linearGradient id="cloudGradient" x1="0%" y1="0%" x2="100%" y2="100%">
      <stop offset="0%" style="stop-color:#FF9900"/>
      <stop offset="50%" style="stop-color:#00D9FF"/>
      <stop offset="100%" style="stop-color:#00FF41"/>
    </linearGradient>
    <filter id="glow">
      <feGaussianBlur stdDeviation="2" result="coloredBlur"/>
      <feMerge>
        <feMergeNode in="coloredBlur"/>
        <feMergeNode in="SourceGraphic"/>
      </feMerge>
    </filter>
  </defs>
  <path d="M80 55c0-11-9-20-20-20-1.5 0-3 .2-4.5.5C53 27 45 21 35 21c-13.8 0-25 11.2-25 25 0 .5 0 1 .1 1.5C5.5 49 2 53.5 2 59c0 7.2 5.8 13 13 13h60c8.3 0 15-6.7 15-15 0-7.5-5.5-13.7-12.5-14.8-.3-.4-.5-.8-.5-1.2 0-.7.1-1.3.2-2H80z" 
        fill="url(#cloudGradient)" 
        filter="url(#glow)"
        opacity="0.9"/>
  <circle cx="50" cy="50" r="8" fill="#0A0E27" stroke="#00D9FF" stroke-width="2"/>
  <circle cx="50" cy="50" r="3" fill="#00FF41"/>
</svg>
